<?xml version="1.0" encoding="UTF-8" standalone="no"?>
<!-- Created with Inkscape (http://www.inkscape.org/) -->

<svg
   xmlns:dc="http://purl.org/dc/elements/1.1/"
   xmlns:cc="http://creativecommons.org/ns#"
   xmlns:rdf="http://www.w3.org/1999/02/22-rdf-syntax-ns#"
   xmlns:svg="http://www.w3.org/2000/svg"
   xmlns="http://www.w3.org/2000/svg"
   xmlns:sodipodi="http://sodipodi.sourceforge.net/DTD/sodipodi-0.dtd"
   xmlns:inkscape="http://www.inkscape.org/namespaces/inkscape"
   version="1.1"
   id="svg2"
   xml:space="preserve"
   width="793.70667"
   height="793.70667"
   viewBox="0 0 793.70667 793.70667"
   sodipodi:docname="sold.svg"
   inkscape:version="0.92.3 (2405546, 2018-03-11)"><metadata
     id="metadata8"><rdf:RDF><cc:Work
         rdf:about=""><dc:format>image/svg+xml</dc:format><dc:type
           rdf:resource="http://purl.org/dc/dcmitype/StillImage" /><dc:title></dc:title></cc:Work></rdf:RDF></metadata><defs
     id="defs6" /><sodipodi:namedview
     pagecolor="#ffffff"
     bordercolor="#666666"
     borderopacity="1"
     objecttolerance="10"
     gridtolerance="10"
     guidetolerance="10"
     inkscape:pageopacity="0"
     inkscape:pageshadow="2"
     inkscape:window-width="1366"
     inkscape:window-height="713"
     id="namedview4"
     showgrid="false"
     inkscape:zoom="0.29733907"
     inkscape:cx="-39.274235"
     inkscape:cy="486.2831"
     inkscape:window-x="0"
     inkscape:window-y="0"
     inkscape:window-maximized="1"
     inkscape:current-layer="g12" /><g
     id="g10"
     inkscape:groupmode="layer"
     inkscape:label="ink_ext_XXXXXX"
     transform="matrix(1.3333333,0,0,-1.3333333,0,793.70667)"><g
       id="g12"
       transform="scale(0.1)"><path
         d="m 2478.6448,1485.6095 c -62.8315,-43.7082 -163.4596,-113.5859 -245.0807,-89.1231 -131.1477,35.1017 -141.3572,244.4332 -305.414,247.7397 11.0783,-82.5102 124.088,-166.3479 182.6293,-233.8916 -112.3038,48.1865 -225.3677,132.063 -358.6334,111.5486 31.9859,-95.0067 258.7656,-135.8606 348.7498,-181.504 -76.7336,18.7688 -177.1988,30.1469 -243.5601,2.0908 25.6322,-57.1916 100.1394,-51.7944 174.212,-46.4019 50.6127,3.7051 101.0625,7.3519 135.6008,-8.8885 78.7973,-44.4473 93.3511,-142.6241 147.005,-204.5081 45.4536,40.5914 -33.2351,166.2944 -70.8687,221.3368 74.6701,6.7054 334.3588,79.0142 229.1148,177.1716 l 6.2452,4.4297"
         style="fill:#401618;fill-opacity:1;fill-rule:nonzero;stroke:none;stroke-width:5.13863182"
         id="path634"
         inkscape:connector-curvature="0" /><path
         d="m 2630.3742,1780.4075 c -83.8476,-58.2322 -181.7061,-162.244 -196.6943,-268.93 -34.7012,-192.5027 199.9527,-137.6499 356.3525,-101.1819 217.765,43.1345 229.9295,75.6542 91.3961,219.9316 -71.5203,82.5636 -129.0298,265.1326 -243.5601,149.3634 l -7.4942,0.8169"
         style="fill:#fddca1;fill-opacity:1;fill-rule:nonzero;stroke:none;stroke-width:5.13863182"
         id="path636"
         inkscape:connector-curvature="0" /><path
         d="m 2563.7415,1373.2975 c -34.8642,0 -65.9812,4.9549 -89.4955,17.7382 0.3258,0.2868 0.6517,0.6272 0.9775,0.9336 23.5143,-12.9 54.6857,-17.8548 89.6584,-17.8548 70.054,0 155.368,19.9407 225.1505,36.1811 55.0658,10.8869 96.9896,21.1418 126.6404,32.6705 0.2172,-0.097 0.3258,-0.097 0.4887,-0.1507 -29.7051,-11.8157 -72.172,-22.2067 -128.3238,-33.3561 -69.7282,-16.2356 -155.0422,-36.1618 -225.0962,-36.1618 m -132.9942,79.9818 c -2.6609,16.0897 -2.2265,35.0629 1.7921,57.3812 6.4624,46.1346 28.4561,91.7391 58.1069,133.3759 0.1086,-0.097 0.2172,-0.1556 0.3801,-0.2479 -29.2707,-41.3889 -50.9385,-86.5946 -57.3465,-132.311 -4.0187,-22.3573 -4.3988,-41.3694 -1.7379,-57.4737 -0.3801,-0.248 -0.7602,-0.4765 -1.1947,-0.7245"
         style="fill:#bc631d;fill-opacity:1;fill-rule:nonzero;stroke:none;stroke-width:5.13863182"
         id="path638"
         inkscape:connector-curvature="0" /><path
         d="m 2474.246,1391.0357 c -22.8083,12.4428 -38.5026,32.2911 -43.4987,62.2436 0.4345,0.248 0.8146,0.4765 1.1947,0.7245 4.9961,-29.8017 20.5819,-49.5965 43.2815,-62.0345 -0.3258,-0.3064 -0.6517,-0.6468 -0.9775,-0.9336"
         style="fill:#391516;fill-opacity:1;fill-rule:nonzero;stroke:none;stroke-width:5.13863182"
         id="path640"
         inkscape:connector-curvature="0" /><path
         d="m 2564.8819,1374.1145 c -34.9727,0 -66.1441,4.9548 -89.6584,17.8548 -22.6996,12.438 -38.2854,32.2328 -43.2815,62.0345 -2.6609,16.1043 -2.2808,35.1164 1.7379,57.4737 6.408,45.7164 28.0758,90.9221 57.3465,132.311 131.0934,-84.465 275.2745,-152.101 425.6464,-200.8224 -29.6508,-11.5287 -71.5746,-21.7836 -126.6404,-32.6705 -69.7825,-16.2404 -155.0965,-36.1811 -225.1505,-36.1811"
         style="fill:#eb9755;fill-opacity:1;fill-rule:nonzero;stroke:none;stroke-width:5.13863182"
         id="path642"
         inkscape:connector-curvature="0" /><path
         d="m 3290.566,4864.6425 h -0.054 l 0.054,0.1459 v -0.1459 M 5214.392,2908.5932 c 53.0565,47.4571 79.5575,118.6914 132.5597,166.2457 -26.501,0 -106.0585,23.6799 -185.5618,23.6799 53.0021,95.0115 53.0021,190.0229 79.5033,284.9857 -108.0137,-135.4667 -251.3801,-255.1792 -372.4271,-371.9255 -26.7726,34.0854 -56.3147,67.4901 -88.0292,100.6031 -122.0244,617.3799 -519.4862,1228.0983 -1060.1516,1518.5299 -104.3208,112.1271 -248.7191,188.3211 -408.4315,228.8249 83.3589,174.9495 254.204,510.6987 155.7481,595.2073 -245.2436,286.1527 -484.5135,-358.9429 -504.9867,-483.1774 10.7525,548.5282 -748.4925,458.525 -334.7932,65.448 -462.9,262.5214 -430.5882,-94.8656 -152.4356,-285.0829 -58.7041,-34.28 -112.9553,-74.5408 -160.6899,-121.2199 -326.919,-351.2117 -392.3028,-1258.5369 -457.6866,-1726.8354 -118.6574,-920.6871 767.5537,-1541.3882 1602.0117,-1551.3026 644.2803,-157.5906 1230.7252,238.8463 1463.6414,748.5629 24.4374,51.7992 44.4218,101.2402 60.985,148.8918 226.7255,65.4966 473.8697,571.4787 230.744,658.5645"
         style="fill:#fddca1;fill-opacity:1;fill-rule:nonzero;stroke:none;stroke-width:5.13863182"
         id="path644"
         inkscape:connector-curvature="0" /><path
         d="m 1873.6273,2964.1705 c -175.0265,548.3823 -940.57088,587.5733 -284.3977,19.5955 -371.7754,176.2622 -492.1163,-88.1068 -98.4016,-225.1782 0,0 -213.2575,0 -158.5719,-83.2444 43.7702,-48.9643 92.9709,-97.9774 229.6578,-127.3464 174.9723,-58.7379 355.4294,-93.0179 421.0304,102.8399 43.7702,97.8803 -87.4861,293.7867 -131.2564,372.1201 l 21.9394,-58.7865"
         style="fill:#fddca1;fill-opacity:1;fill-rule:nonzero;stroke:none;stroke-width:5.13863182"
         id="path646"
         inkscape:connector-curvature="0" /><path
         d="m 3746.5148,1317.5695 c -93.8398,0 -190.0149,11.1301 -287.4932,35.0045 -0.7602,0 -1.5205,0 -2.2808,0 0.7603,0 1.5206,0 2.2808,0 97.4783,-23.8744 193.6534,-35.0045 287.4932,-35.0045 107.8507,0 212.5517,14.738 312.6368,41.9188 v 0 c -100.0851,-27.1808 -204.7861,-41.9188 -312.6368,-41.9188 m -290.4257,35.0045 c -0.543,0 -1.1404,0.059 -1.6834,0.059 0.543,0 1.1404,-0.059 1.6834,-0.059 m -2.4437,0.059 c -0.5431,0 -1.0318,0 -1.5205,0.049 0.4887,-0.049 0.9774,-0.049 1.5205,-0.049 m -2.3352,0.049 c -0.543,0 -1.086,0 -1.5748,0 0.5431,0 1.0318,0 1.5748,0 m -2.3351,0.053 c -0.6516,0 -1.3033,0 -1.955,0 0.6517,0 1.3034,0 1.955,0 m -2.2265,0 c -1.6292,0.049 -3.1497,0.097 -4.7789,0.097 1.5749,0 3.204,-0.059 4.7789,-0.097 m -5.1047,0.1362 c -0.6517,0 -1.3034,0 -1.955,0.053 0.6516,-0.053 1.3033,-0.053 1.955,-0.053 m -2.5524,0.053 c -0.5974,0 -1.1947,0 -1.7921,0.059 0.5974,-0.059 1.1947,-0.059 1.7921,-0.059 m -2.2808,0.059 c -0.6517,0 -1.412,0.049 -2.0636,0.049 0.7059,0 1.3033,-0.049 2.0636,-0.049 m -2.3351,0.049 c -2.4438,0.059 -4.7789,0.1508 -7.2226,0.1897 2.4437,-0.049 4.7788,-0.1313 7.2226,-0.1897 m -7.3313,0.1897 c -0.7603,0.059 -1.5206,0.059 -2.2809,0.097 0.706,-0.049 1.575,-0.049 2.2809,-0.097 m -2.5523,0.097 c -0.706,0.053 -1.3577,0.053 -2.0637,0.053 0.706,0 1.3577,0 2.0637,-0.053 m -2.3895,0.1119 c -0.706,0 -1.4663,0.049 -2.1722,0.049 0.7059,0 1.4119,-0.049 2.1722,-0.049 m -2.3894,0.049 c -3.2041,0.1507 -6.4624,0.248 -9.6664,0.3987 3.204,-0.1507 6.4623,-0.248 9.6664,-0.3987 m -9.8293,0.3987 c -9.7207,0.3792 -19.55,0.8753 -29.2707,1.4053 9.7207,-0.53 19.55,-1.0261 29.2707,-1.4053 m -29.325,1.4053 c -26.9355,1.5559 -53.9253,3.7392 -80.8608,6.5156 26.9355,-2.83 53.871,-4.9597 80.8608,-6.5156 m -80.9695,6.5156 c -0.706,0.059 -1.5205,0.1507 -2.2808,0.248 0.7603,-0.097 1.5205,-0.1897 2.2808,-0.248 m -2.498,0.248 c -0.7603,0.093 -1.4662,0.1313 -2.2265,0.243 0.7603,-0.1117 1.5205,-0.1507 2.2265,-0.243 m -2.4438,0.243 c -3.2039,0.3259 -6.408,0.6663 -9.612,1.065 3.1497,-0.3404 6.4623,-0.7391 9.612,-1.065 m -9.8836,1.1039 c -0.7059,0.059 -1.3576,0.1507 -2.0092,0.209 0.6516,-0.059 1.3576,-0.1507 2.0092,-0.209 m -2.5523,0.2479 c -0.5973,0.093 -1.249,0.1508 -1.8464,0.2431 0.5974,-0.093 1.2491,-0.1507 1.8464,-0.2431 m -2.3352,0.3015 c -0.6516,0.049 -1.4119,0.1361 -2.0635,0.2285 0.7059,-0.093 1.4119,-0.1896 2.0635,-0.2285 m -2.3351,0.2285 c -1.5748,0.2091 -3.204,0.3988 -4.7246,0.5884 1.575,-0.1896 3.1498,-0.3793 4.7246,-0.5884 m -5.2133,0.6467 c -0.5974,0.049 -1.1947,0.1313 -1.8464,0.1896 0.6517,-0.059 1.249,-0.1507 1.8464,-0.1896 m -2.5524,0.2821 c -0.4887,0.059 -1.0317,0.1555 -1.5748,0.1945 0.4887,-0.049 1.0861,-0.1362 1.5748,-0.1945 m -2.3894,0.2868 c -0.4887,0.059 -0.9775,0.097 -1.4663,0.2091 0.4345,-0.059 1.0319,-0.1508 1.4663,-0.2091 m -2.3351,0.3064 c -0.5431,0.049 -0.9776,0.093 -1.5206,0.1895 0.543,-0.097 0.9775,-0.1555 1.5206,-0.1895 m -2.3351,0.282 c -0.706,0.097 -1.4663,0.1896 -2.2266,0.2868 0.7603,-0.097 1.4663,-0.1896 2.2266,-0.2868 m -2.661,0.3404 c -0.6517,0.059 -1.1948,0.1556 -1.8464,0.1945 0.6516,-0.049 1.1947,-0.1362 1.8464,-0.1945 m -2.7154,0.3451 c -0.4887,0.059 -0.9231,0.093 -1.4118,0.1508 0.4887,-0.059 0.9774,-0.093 1.4118,-0.1508 m -2.3894,0.2821 c -0.4344,0.059 -0.8688,0.097 -1.2489,0.1556 0.4344,-0.059 0.8145,-0.097 1.2489,-0.1556 m -2.3894,0.3063 c -0.3801,0.049 -0.7602,0.093 -1.1404,0.1313 0.4345,-0.049 0.7603,-0.093 1.1404,-0.1313 m -2.2808,0.2821 c -0.3258,0.059 -0.6517,0.097 -0.9775,0.1556 0.3258,-0.059 0.6517,-0.097 0.9775,-0.1556 m -6.0279,0.8363 c -0.163,0 -0.3258,0.049 -0.4888,0.049 0.1087,0 0.3801,-0.049 0.4888,-0.049 m -2.0094,0.2285 c -0.2714,0.059 -0.4887,0.097 -0.7602,0.1507 0.2715,-0.053 0.4888,-0.093 0.7602,-0.1507 m -2.2265,0.3452 c -0.2715,0 -0.4344,0.053 -0.706,0.093 0.2173,-0.049 0.4888,-0.093 0.706,-0.093 m -2.2808,0.3015 c -0.1629,0.049 -0.3802,0.049 -0.543,0.097 0.2171,-0.059 0.3258,-0.059 0.543,-0.097 m -2.2266,0.2869 c -0.054,0.053 -0.1085,0.053 -0.1628,0.053 0.054,0 0.1085,0 0.1628,-0.053 m -8.363,1.2156 h -0.054 0.054 m -2.0635,0.282 h -0.054 c 0.054,0 0,0 0.054,0 m 1225.8376,171.4582 v 0 c 206.6867,142.1671 371.721,340.0283 471.6431,558.681 24.4374,51.7993 44.4218,101.2402 60.985,148.8918 0.4345,0.097 0.869,0.2431 1.3577,0.389 -0.4887,-0.1459 -0.9232,-0.2918 -1.3577,-0.389 -16.5632,-47.6516 -36.5476,-97.0925 -60.985,-148.8918 -99.9221,-218.6527 -264.9564,-416.5139 -471.6431,-558.681 m 533.9858,707.9618 c 9.2863,2.723 18.5724,6.224 27.913,10.4056 -9.3406,-4.1816 -18.6267,-7.6826 -27.913,-10.4056 m 28.0759,10.4542 c 0.163,0.097 0.3258,0.1459 0.4888,0.2432 -0.163,-0.097 -0.3258,-0.1459 -0.4888,-0.2432 m 0.6517,0.2918 c 0.1629,0.097 0.3258,0.1459 0.4887,0.2431 -0.1629,-0.097 -0.3258,-0.1459 -0.4887,-0.2431 m 0.706,0.3404 c 0.1628,0.049 0.2715,0.097 0.4344,0.1945 -0.1629,-0.049 -0.3259,-0.1459 -0.4344,-0.1945 m 0.7059,0.3403 c 0.1086,0 0.2172,0.049 0.2716,0.097 -0.054,-0.049 -0.163,-0.049 -0.2716,-0.097 m 0.7603,0.3404 c 0.054,0 0.1086,0.049 0.1629,0.049 -0.054,0 -0.1086,-0.049 -0.1629,-0.049 m 0.6517,0.2917 c 0.054,0 0.1086,0.049 0.1086,0.049 0,0 -0.054,0 -0.1086,-0.049 m 0.706,0.3404 c 0,0 0,0 0.054,0 -0.054,0 -0.054,0 -0.054,0 m -3226.2888,239.5222 c 26.9356,0.8752 52.4048,5.3 75.8105,14.2955 v 0 c -23.4057,-8.9955 -48.8749,-13.4203 -75.8105,-14.2955 m 77.9284,490.9086 v 0 c 62.0711,484.393 137.936,1300.6454 441.938,1633.3313 -303.9477,-332.7346 -379.8669,-1148.9383 -441.938,-1633.3313 m 441.938,1633.3313 c 0.3259,0.3404 0.5973,0.6807 0.9232,0.9725 -0.3259,-0.2918 -0.5973,-0.6321 -0.9232,-0.9725 m 0.9775,1.0697 c 0.6517,0.6808 1.1948,1.3129 1.8464,1.9937 -0.6516,-0.6808 -1.1947,-1.3129 -1.8464,-1.9937 m 1.9007,2.0423 c 0.3258,0.389 0.6517,0.6807 0.9775,1.0211 -0.3258,-0.3404 -0.6517,-0.6321 -0.9775,-1.0211 m 160.2554,123.2134 c -0.2714,0.1458 -0.4887,0.3403 -0.7602,0.4862 0.2172,-0.1459 0.4888,-0.3404 0.7602,-0.4862 m -1.3575,0.9238 c -18.4639,12.7395 -35.8417,26.257 -52.0247,40.2608 16.183,-14.0038 33.5608,-27.4726 52.0247,-40.2608 m -52.1333,40.358 c -0.5431,0.4863 -1.0861,0.9725 -1.5749,1.4101 0.4888,-0.4376 1.0318,-0.9238 1.5749,-1.4101 m -2.1179,1.8477 c -0.2173,0.1945 -0.3802,0.389 -0.5974,0.5349 0.1629,-0.1459 0.3801,-0.3404 0.5974,-0.5349 m -1.4663,1.2643 c -0.1086,0.1459 -0.2171,0.2431 -0.3801,0.3404 0.163,-0.097 0.2715,-0.1945 0.3801,-0.3404"
         style="fill:#cd691c;fill-opacity:1;fill-rule:nonzero;stroke:none;stroke-width:5.13863182"
         id="path648"
         inkscape:connector-curvature="0" /><path
         d="m 3746.5148,1317.5695 c -93.8398,0 -190.0149,11.1301 -287.4932,35.0045 -0.7602,0 -1.5205,0 -2.2808,0 -0.2173,0 -0.4344,0 -0.6517,0 -0.543,0 -1.1404,0.059 -1.6834,0.059 -0.2716,0 -0.5431,0 -0.7603,0 -0.5431,0 -1.0318,0 -1.5205,0.049 -0.2716,0 -0.5431,0 -0.8147,0 -0.543,0 -1.0317,0 -1.5748,0 -0.2715,0 -0.4888,0.053 -0.7603,0.053 -0.6516,0 -1.3033,0 -1.955,0 -0.1086,0 -0.1629,0 -0.2715,0 -1.5749,0.049 -3.204,0.097 -4.7789,0.097 -0.1086,0.049 -0.2172,0.049 -0.3258,0.049 -0.6517,0 -1.3034,0 -1.955,0.053 -0.2172,0 -0.3801,0 -0.5974,0 -0.5974,0 -1.1947,0 -1.7921,0.059 -0.2172,0 -0.3258,0 -0.4887,0 -0.7603,0 -1.3577,0.049 -2.0636,0.049 -0.1087,0 -0.1629,0 -0.2715,0 -2.4438,0.059 -4.7789,0.1507 -7.2226,0.1896 -0.054,0 -0.054,0 -0.1087,0 -0.7059,0.059 -1.5749,0.059 -2.2809,0.097 -0.054,0 -0.1628,0 -0.2714,0 -0.706,0.053 -1.3577,0.053 -2.0637,0.053 -0.1628,0.059 -0.2171,0.059 -0.3258,0.059 -0.7603,0 -1.4663,0.049 -2.1722,0.049 -0.1086,0 -0.1086,0 -0.2172,0 -3.2041,0.1506 -6.4624,0.2479 -9.6664,0.3987 -0.054,0 -0.1086,0 -0.1629,0 -9.7207,0.3792 -19.55,0.8752 -29.2707,1.4052 -0.054,0 -0.054,0 -0.054,0 -26.9897,1.556 -53.9253,3.6856 -80.8608,6.5156 -0.054,0 -0.054,0 -0.1087,0 -0.7603,0.059 -1.5205,0.1508 -2.2808,0.248 -0.1086,0 -0.1629,0 -0.2172,0 -0.706,0.093 -1.4662,0.1313 -2.2265,0.2431 0,0 -0.163,0 -0.2173,0 -3.1496,0.3258 -6.4623,0.7245 -9.612,1.0649 -0.054,0 -0.2173,0 -0.2715,0.049 -0.6517,0.059 -1.3577,0.1507 -2.0093,0.2091 -0.2173,0.049 -0.3801,0.049 -0.5431,0.049 -0.5973,0.093 -1.249,0.1507 -1.8464,0.2431 -0.2172,0 -0.3258,0 -0.4887,0.059 -0.6517,0.049 -1.3577,0.1361 -2.0636,0.2285 -0.1087,0 -0.163,0 -0.2716,0 -1.5748,0.2091 -3.1496,0.3987 -4.7246,0.5884 -0.1629,0 -0.3801,0.059 -0.4887,0.059 -0.5974,0.049 -1.1947,0.1313 -1.8464,0.1896 -0.2172,0.049 -0.4344,0.049 -0.706,0.093 -0.4887,0.059 -1.0861,0.1557 -1.5748,0.1945 -0.2716,0.053 -0.543,0.053 -0.8146,0.093 -0.4344,0.059 -1.0318,0.1506 -1.4662,0.2091 -0.2716,0 -0.5975,0.049 -0.8689,0.097 -0.5431,0.049 -0.9775,0.093 -1.5206,0.1896 -0.2715,0 -0.5431,0.053 -0.8145,0.093 -0.7603,0.097 -1.4663,0.1897 -2.2266,0.2869 -0.1086,0 -0.2715,0 -0.4344,0.053 -0.6517,0.059 -1.1948,0.1556 -1.8464,0.1945 -0.2715,0.053 -0.5974,0.093 -0.8689,0.1508 -0.4345,0.059 -0.9232,0.093 -1.4119,0.1507 -0.3259,0.049 -0.6517,0.097 -0.9775,0.1314 -0.4345,0.059 -0.8146,0.097 -1.249,0.1555 -0.3802,0.049 -0.706,0.093 -1.1405,0.1507 -0.3801,0.049 -0.7059,0.093 -1.1404,0.1314 -0.3258,0.059 -0.7602,0.097 -1.1404,0.1507 -0.3258,0.059 -0.6517,0.097 -0.9775,0.1555 -1.6834,0.2481 -3.3127,0.4377 -5.0504,0.6808 -0.1087,0 -0.3801,0.049 -0.4888,0.049 -0.4887,0.097 -1.0317,0.1508 -1.5206,0.1897 -0.2714,0.059 -0.4887,0.097 -0.7602,0.1507 -0.4888,0.059 -1.0318,0.097 -1.4663,0.1945 -0.2172,0 -0.4887,0.053 -0.706,0.093 -0.543,0.059 -1.0317,0.1507 -1.5748,0.209 -0.2172,0.049 -0.3259,0.049 -0.543,0.097 -0.5431,0.049 -1.1404,0.1313 -1.6836,0.1897 -0.054,0.053 -0.1085,0.053 -0.1628,0.053 -2.7696,0.3793 -5.4305,0.7634 -8.2002,1.1621 h -0.054 c -0.6517,0.093 -1.3032,0.1897 -2.0092,0.2821 -0.054,0 0,0 -0.054,0 -633.7993,91.9481 -1240.4459,519.1594 -1358.2345,1145.6855 0,0 -0.054,-0.049 -0.1086,-0.049 v 0 c 50.6671,19.5469 91.5048,60.6342 116.1594,134.2024 38.9914,87.183 -60.8221,252.0186 -114.0414,342.4108 62.0711,484.393 137.9902,1300.5967 441.938,1633.3313 v 0 c 0.3258,0.3404 0.5973,0.6807 0.9231,0.9725 0,0.049 0.054,0.097 0.054,0.097 0.6517,0.6808 1.1948,1.3129 1.8464,1.9936 l 0.054,0.049 c 0.3258,0.389 0.6517,0.6807 0.9775,1.021 v 0 c 47.7346,46.6792 101.9858,86.9399 160.6899,121.2199 v 0 0 0 c -0.4887,0.2917 -0.9774,0.6321 -1.412,0.9725 -0.2714,0.1458 -0.543,0.3403 -0.7602,0.4862 -0.2172,0.1459 -0.4345,0.2918 -0.5973,0.4376 -18.4639,12.7882 -35.8416,26.257 -52.0247,40.2608 -0.054,0.049 -0.054,0.097 -0.1086,0.097 -0.5431,0.4862 -1.0861,0.9725 -1.5749,1.4101 -0.2172,0.1459 -0.3801,0.2918 -0.543,0.4376 -0.2173,0.1945 -0.4344,0.389 -0.5974,0.5349 -0.2715,0.2431 -0.5973,0.4863 -0.8689,0.7294 -0.1086,0.1458 -0.2171,0.2431 -0.3801,0.3403 -44.4219,39.191 -79.7747,82.0775 -104.3752,123.6511 76.1363,-77.8472 196.9661,-133.8135 296.8339,-183.5074 -330.7205,-30.5359 -576.1269,-746.5254 -538.4933,-970.6338 42.0325,-250.9975 -74.9415,-784.6467 -21.9394,-1037.9781 70.7601,-332.4914 162.9165,-665.717 481.2553,-871.5332 318.2844,-205.777 686.9642,-317.0825 1093.6038,-332.8852 24.8719,-0.8169 49.1464,-1.2691 72.8779,-1.2691 239.6501,0 423.1483,42.2592 587.6397,128.6252 -20.6904,-12.5547 -44.2048,-28.8924 -71.2488,-48.872 -87.5405,-58.31 -272.3964,-103.8562 -192.5673,-195.2354 5.5392,-6.4622 12.3817,-13.1625 20.6904,-20.0769 l -1.0318,-6.4232 c 2.2808,-2.7133 4.6159,-5.4897 7.0597,-8.2613 3.91,-4.5754 8.0372,-9.1365 12.3274,-13.7508 -100.0851,-27.1809 -204.7861,-41.9189 -312.6368,-41.9189 m 704.5051,224.8864 c -14.0108,57.6633 -27.8587,96.3194 -46.1597,117.8162 -11.9471,14.4947 -25.8494,21.482 -42.9013,21.482 -13.6307,0 -29.2707,-4.4637 -47.6802,-13.1236 120.0695,67.9229 231.1241,160.0802 348.0981,277.1574 213.2034,190.9078 345.0027,458.7681 607.3525,612.8092 -55.0657,-126.763 -153.1957,-249.1497 -252.4118,-295.7803 -0.054,0 -0.054,0 -0.054,0 -0.2172,-0.097 -0.3801,-0.1945 -0.5974,-0.2918 0,0 -0.054,-0.049 -0.1086,-0.049 -0.1629,-0.049 -0.3258,-0.1459 -0.4888,-0.2431 -0.054,0 -0.1086,-0.049 -0.1629,-0.049 -0.1629,-0.097 -0.3258,-0.1457 -0.4887,-0.243 -0.054,-0.049 -0.163,-0.097 -0.2715,-0.097 -0.1086,-0.049 -0.163,-0.097 -0.2716,-0.1459 -0.1629,-0.097 -0.2715,-0.1459 -0.4344,-0.1945 -0.1086,-0.049 -0.1629,-0.097 -0.2173,-0.097 -0.1629,-0.097 -0.3257,-0.1459 -0.4887,-0.2432 -0.054,0 -0.1086,-0.049 -0.1629,-0.049 -0.163,-0.097 -0.3258,-0.1459 -0.4888,-0.2431 -0.054,0 -0.1086,-0.049 -0.1629,-0.049 -9.3405,-4.1817 -18.6267,-7.6826 -27.913,-10.4056 v 0 c -0.4887,-0.1459 -0.9231,-0.2918 -1.3577,-0.389 -16.5631,-47.6516 -36.5476,-97.0926 -60.9849,-148.8918 -99.9221,-218.6527 -264.9565,-416.5139 -471.6432,-558.681"
         style="fill:#f89f57;fill-opacity:1;fill-rule:nonzero;stroke:none;stroke-width:5.13863182"
         id="path650"
         inkscape:connector-curvature="0" /><path
         d="m 1786.1955,2502.1931 h 0.054 -0.054 m 1.9551,0.049 c 0.1086,0 0.2714,0 0.4344,0 -0.163,0 -0.3258,0 -0.4344,0 m 0.8688,0 c 0.2716,0.049 0.5431,0.049 0.8146,0.049 -0.2715,0 -0.543,0 -0.8146,-0.049 m 0.9776,0.049 c 0.2714,0 0.543,0 0.8146,0 -0.2716,0 -0.5432,0 -0.8146,0 m -200.7674,481.4756 v 0 c -257.1365,222.6011 -295.9649,351.8924 -237.5865,393.855 -58.3784,-42.0112 -19.4957,-171.3026 237.5865,-393.855"
         style="fill:#cd691c;fill-opacity:1;fill-rule:nonzero;stroke:none;stroke-width:5.13863182"
         id="path652"
         inkscape:connector-curvature="0" /><path
         d="m 1780.4392,2502.1445 c -67.5018,0 -143.5294,20.7138 -218.5253,45.8525 v 0 c -136.6869,29.369 -185.8876,78.3821 -229.6578,127.3464 -6.1909,9.4331 -8.9605,17.7965 -8.9605,25.1874 -0.1629,58.057 167.5324,58.057 167.5324,58.057 v 0 0 c -169.2159,58.8838 -243.5058,141.3503 -243.6687,202.2276 -0.1085,47.3112 44.6391,81.5912 124.4139,81.5912 56.2605,0 129.953,-17.067 217.6564,-58.6406 v 0 0 c -257.0822,222.5524 -295.9649,351.8438 -237.5865,393.855 14.1738,10.2111 33.9952,15.2193 57.8896,15.2193 119.5807,0 339.4093,-126.8602 442.2095,-369.9806 4.7247,-8.5092 10.6983,-18.623 17.1606,-29.612 v 0 0 c 53.2194,-90.3921 153.0329,-255.2278 114.0415,-342.4108 -24.6547,-73.5681 -65.4923,-114.6555 -116.1594,-134.2024 -23.4057,-8.9954 -48.8749,-13.4203 -75.8105,-14.2955 -0.054,0 -0.1086,-0.049 -0.1628,-0.049 -0.2716,0 -0.5432,0 -0.8146,0 -0.054,0 -0.1087,0 -0.163,0 -0.2715,0 -0.543,0 -0.8146,-0.049 -0.1629,0 -0.3258,0 -0.4344,0 -0.163,0 -0.3258,0 -0.4344,0 -0.6517,0 -1.2491,-0.049 -1.9007,-0.049 h -0.054 c -1.9007,-0.049 -3.8014,-0.049 -5.7563,-0.049"
         style="fill:#f89f57;fill-opacity:1;fill-rule:nonzero;stroke:none;stroke-width:5.13863182"
         id="path654"
         inkscape:connector-curvature="0" /><path
         d="m 4979.5752,3257.9571 c 109.3712,58.7379 267.9432,141.9824 174.9722,195.8092 -60.1705,53.9241 -153.1415,19.6441 -262.4583,-19.5469 87.4861,97.9289 339.0291,215.4533 196.8573,274.1911 -218.7424,19.5955 -360.9143,-127.2977 -514.0015,-244.7735 l -5.539,-4.9597 c -218.6882,-117.4758 -158.5721,-435.7203 38.2853,-514.0537 262.5128,-97.9289 831.1997,332.8804 371.884,313.3335"
         style="fill:#fddca1;fill-opacity:1;fill-rule:nonzero;stroke:none;stroke-width:5.13863182"
         id="path656"
         inkscape:connector-curvature="0" /><path
         d="m 2776.9991,4291.6077 c 603.3339,-93.3095 338.3231,-1000.2459 -356.3526,-673.4435 -318.393,150.9293 -368.0283,741.2741 349.1842,676.2638"
         style="fill:#ffffff;fill-opacity:1;fill-rule:nonzero;stroke:none;stroke-width:5.13863182"
         id="path658"
         inkscape:connector-curvature="0" /><path
         d="m 3588.7031,4307.5078 c 500.6966,-83.5848 282.0627,-889.6261 -294.8244,-598.2706 -264.4134,134.5428 -305.9028,658.7589 289.2852,600.1669"
         style="fill:#ffffff;fill-opacity:1;fill-rule:nonzero;stroke:none;stroke-width:5.13863182"
         id="path660"
         inkscape:connector-curvature="0" /><path
         d="m 3680.8595,4445.6002 c 0,0 -7.4942,-9.19 -16.0201,-23.4369 -7.6027,-14.3441 -20.5275,-33.1616 -27.8044,-55.5773 -9.069,-22.3185 -11.8929,-44.2965 -13.7392,-60.8287 -1.4663,-16.5322 -0.4346,-27.5698 -0.4346,-27.5698 0,0 9.069,7.3422 20.7991,20.3248 11.8929,12.8368 25.4149,32.2864 34.8641,55.5773 7.8743,24.1176 10.7525,47.0681 7.7657,64.2811 -2.0094,17.067 -5.4306,27.2295 -5.4306,27.2295"
         style="fill:#1d1211;fill-opacity:1;fill-rule:nonzero;stroke:none;stroke-width:5.13863182"
         id="path662"
         inkscape:connector-curvature="0" /><path
         d="m 3476.0192,4505.116 c 0,0 0.3259,-3.5495 0.8146,-9.7734 0.3259,-6.2238 2.118,-14.6358 2.824,-25.1873 1.5205,-20.6652 3.6384,-48.5268 5.9736,-79.2086 2.1721,-30.4873 5.2132,-58.7379 8.1457,-80.0353 2.3894,-21.1514 5.322,-35.0093 5.322,-35.0093 0,0 7.8743,11.9616 16.4003,32.6755 7.9829,20.7624 16.2373,50.9579 13.7935,85.0434 -2.8781,34.0368 -15.9658,63.6003 -28.8905,82.7095 -6.1366,9.6763 -13.1419,16.6295 -17.3234,21.4433 -4.5074,4.7166 -7.0598,7.3422 -7.0598,7.3422"
         style="fill:#1d1211;fill-opacity:1;fill-rule:nonzero;stroke:none;stroke-width:5.13863182"
         id="path664"
         inkscape:connector-curvature="0" /><path
         d="m 3372.4044,4400.1852 c 0,0 -2.498,-8.9467 -3.4213,-22.0752 -0.4887,-13.0314 -1.6834,-30.2928 3.1497,-47.7489 3.2041,-17.6992 11.893,-32.9671 17.595,-44.8314 6.2995,-11.7184 12.3274,-19.401 12.3274,-19.401 0,0 4.9418,7.7799 9.5034,20.8111 5.2134,13.0313 7.0598,31.557 3.4213,51.2984 -5.2134,19.3524 -15.1512,35.5442 -25.1435,45.8039 -9.612,10.5514 -17.432,16.1431 -17.432,16.1431"
         style="fill:#1d1211;fill-opacity:1;fill-rule:nonzero;stroke:none;stroke-width:5.13863182"
         id="path666"
         inkscape:connector-curvature="0" /><path
         d="m 2788.8377,4397.1706 -0.1087,-6.5642 c -0.3258,-4.2304 0.7603,-9.2873 -0.1085,-16.046 -0.3259,-12.9826 -2.9326,-29.2231 -2.4438,-47.5057 0.2172,-18.3799 3.4213,-36.3222 7.1683,-49.8397 3.5842,-13.4689 7.6571,-22.3185 7.6571,-22.3185 0,0 6.7339,7.2936 14.0651,19.8872 7.114,12.6424 15.0969,30.9736 14.8798,52.8058 -0.5431,21.9295 -9.8294,41.9626 -20.7447,53.681 -4.7246,6.078 -11.0784,9.6762 -14.4454,12.3019 l -5.9192,3.5982"
         style="fill:#1d1211;fill-opacity:1;fill-rule:nonzero;stroke:none;stroke-width:5.13863182"
         id="path668"
         inkscape:connector-curvature="0" /><path
         d="m 2646.6659,4426.1506 c 0,0 5.3763,-10.3084 13.5763,-24.3607 7.8201,-14.6845 16.9434,-33.2589 26.7726,-52.9516 9.3406,-19.9359 17.5951,-38.6562 24.0031,-53.8755 5.4849,-15.0735 10.1008,-25.7222 10.1008,-25.7222 0,0 6.2995,9.2872 11.8386,26.4029 4.5074,16.9212 6.3538,42.8864 -5.7564,68.56 -12.5445,25.4304 -34.3753,42.3515 -51.21,51.1038 -8.3631,4.5708 -16.2917,6.7102 -21.2877,8.5579 -5.1048,1.6532 -8.0373,2.2854 -8.0373,2.2854"
         style="fill:#1d1211;fill-opacity:1;fill-rule:nonzero;stroke:none;stroke-width:5.13863182"
         id="path670"
         inkscape:connector-curvature="0" /><path
         d="m 2444.1064,4390.7036 c 0,0 8.4175,-8.3147 22.374,-19.2551 13.7392,-11.1836 32.5289,-24.9442 53.2736,-37.9268 20.3103,-13.1771 39.3172,-24.0204 53.5995,-33.7451 7.3312,-4.6193 12.3274,-9.3845 16.7805,-12.3019 l 6.8424,-4.7652 c 0,0 -0.054,2.723 -0.7602,7.5853 -0.869,4.7166 -1.3577,12.3505 -4.9418,20.6166 -6.2452,16.8726 -21.8308,38.8507 -46.214,54.5076 -24.4918,15.4139 -50.7213,21.346 -69.5653,23.8745 -19.007,2.2367 -31.3887,1.4101 -31.3887,1.4101"
         style="fill:#1d1211;fill-opacity:1;fill-rule:nonzero;stroke:none;stroke-width:5.13863182"
         id="path672"
         inkscape:connector-curvature="0" /><path
         d="m 3463.0946,3590.8861 c -43.7702,65.3022 -151.3495,146.8934 -282.6058,127.2979 l -9.069,3.2091 c -87.4862,-26.0624 -277.0666,-78.2846 -306.2286,-169.6979 -58.3241,-130.5556 160.4183,-352.5246 320.8368,-352.5246 189.5804,0 379.1065,261.1113 277.0666,391.7155"
         style="fill:#58171b;fill-opacity:1;fill-rule:nonzero;stroke:none;stroke-width:5.13863182"
         id="path674"
         inkscape:connector-curvature="0" /><path
         d="m 2835.9749,3891.1885 c 0,0 0.4344,7.4881 1.1404,21.0056 -0.869,13.4688 -1.3034,33.7451 -11.9472,57.7168 -10.3724,23.3395 -32.6377,51.2983 -68.9137,66.8094 -35.6244,16.2891 -80.2635,19.9359 -123.2735,13.4203 -86.943,-13.712 -151.3493,-60.0507 -183.7697,-100.0198 -16.5089,-20.1304 -25.9037,-38.5102 -30.2481,-51.5901 -2.7697,-6.3697 -3.5299,-11.7184 -4.5617,-15.1221 l -1.3034,-5.3 3.0954,4.7165 c 2.118,2.9661 4.4531,7.6826 8.9062,13.0313 7.82,11.1349 21.342,25.8193 40.3489,41.1845 37.688,30.536 100.7367,62.9196 174.755,74.4436 36.7649,5.5431 72.3892,4.522 101.2798,-5.057 29.325,-8.8009 50.3411,-27.1322 64.2433,-45.4635 13.9023,-18.6231 19.8759,-37.1488 24.6548,-49.5965 3.5841,-12.9827 5.5935,-20.179 5.5935,-20.179"
         style="fill:#1d1211;fill-opacity:1;fill-rule:nonzero;stroke:none;stroke-width:5.13863182"
         id="path676"
         inkscape:connector-curvature="0" /><path
         d="m 3769.2689,3943.4107 c 0,0 -2.1723,5.8835 -6.0822,16.435 -2.2266,5.2027 -4.1272,12.1073 -8.2002,19.2551 -4.3988,7.1477 -9.3948,15.3166 -14.8253,24.2634 -7.0598,8.1203 -14.6082,17.5533 -24.2747,26.5001 -10.3722,8.1689 -21.1791,17.845 -35.4614,24.5065 -27.1528,14.6359 -62.9401,24.6039 -99.9764,22.8047 -36.982,-1.3128 -70.4342,-11.6211 -97.8041,-24.2633 -13.4678,-6.856 -25.9581,-13.5662 -36.3848,-21.3946 -11.0782,-7.0505 -19.8758,-15.2194 -27.9673,-22.4157 -8.363,-6.856 -14.1737,-14.6845 -19.8758,-20.8111 -5.8106,-6.1267 -9.8293,-12.0102 -13.0333,-16.9213 -6.2994,-9.5302 -9.8292,-14.9276 -9.8292,-14.9276 0,0 5.3219,3.89 14.9339,10.8919 9.1777,7.1963 23.7315,16.435 41.6524,26.5973 9.1775,4.8138 18.7896,10.4543 30.0851,14.9763 10.8611,5.3486 23.0255,9.3844 35.6245,13.9064 25.5236,7.9258 54.1425,14.1497 84.0106,15.2194 60.1704,2.577 110.7288,-21.6863 141.52,-47.3112 7.4399,-6.7589 14.1194,-12.9827 19.9844,-18.4286 6.0279,-5.4945 9.8836,-11.1835 13.848,-15.3652 7.7656,-8.7037 12.0558,-13.5175 12.0558,-13.5175"
         style="fill:#1d1211;fill-opacity:1;fill-rule:nonzero;stroke:none;stroke-width:5.13863182"
         id="path678"
         inkscape:connector-curvature="0" /><path
         d="m 3375.5542,3388.5614 c 0,-39.7259 -88.0836,-71.8664 -196.8575,-71.8664 -108.7196,0 -196.8574,32.1405 -196.8574,71.8664 0,39.6286 88.1378,71.7691 196.8574,71.7691 108.7739,0 196.8575,-32.1405 196.8575,-71.7691"
         style="fill:#1a1312;fill-opacity:1;fill-rule:nonzero;stroke:none;stroke-width:5.13863182"
         id="path680"
         inkscape:connector-curvature="0" /><path
         d="m 4365.9232,1239.7127 c 47.5173,-57.1333 123.545,-148.5855 94.5459,-221.1812 -41.8696,-116.69779 -275.8719,-121.65753 -282.823,-268.36118 92.3736,8.22229 188.2228,107.65376 264.8478,158.70897 -56.0976,-99.58204 -152.0553,-199.01831 -131.8537,-318.7697 106.7103,26.6849 156.9429,228.91242 209.8364,308.51488 -22.5911,-68.38005 -37.3079,-158.08656 -7.3312,-218.03027 108.3937,36.65765 21.505,200.86112 68.0447,276.22842 51.2101,69.62968 161.1244,80.66248 231.3414,127.44378 -44.4219,41.486 -186.3765,-26.3981 -248.5563,-58.9713 -6.0822,66.9893 -81.4582,300.9733 -193.2731,208.6848 l -4.7789,5.7328"
         style="fill:#58171b;fill-opacity:1;fill-rule:nonzero;stroke:none;stroke-width:5.13863182"
         id="path682"
         inkscape:connector-curvature="0" /><path
         d="m 4039.7645,1381.5004 c 63.3202,-76.2376 177.5789,-165.8907 296.345,-181.5574 214.2351,-34.9121 157.7574,176.2234 120.178,316.9852 -43.7159,195.8626 -79.7748,207.372 -243.6143,86.3077 -93.6771,-62.3361 -298.6802,-110.1821 -171.8226,-215.0691 l -1.0861,-6.6664"
         style="fill:#fddca1;fill-opacity:1;fill-rule:nonzero;stroke:none;stroke-width:5.13863182"
         id="path684"
         inkscape:connector-curvature="0" /><path
         d="m 4380.5314,1195.0417 c -13.0877,0 -27.5872,1.2546 -43.5531,3.8365 -107.9592,14.2419 -212.2257,89.6677 -277.8267,160.6101 h 0.054 c 65.6554,-70.6167 169.4331,-145.3422 276.9037,-159.5453 15.9657,-2.5673 30.4654,-3.8412 43.4986,-3.8412 7.3313,0 14.1738,0.4035 20.6361,1.1231 0.3259,-0.3404 0.5431,-0.6855 0.8689,-1.0648 -6.4624,-0.7391 -13.3048,-1.1184 -20.5817,-1.1184"
         style="fill:#cd691c;fill-opacity:1;fill-rule:nonzero;stroke:none;stroke-width:5.13863182"
         id="path686"
         inkscape:connector-curvature="0" /><path
         d="m 4059.1516,1359.4883 c -4.2902,4.6145 -8.4175,9.1754 -12.3274,13.7509 3.9642,-4.5755 8.0915,-9.1364 12.3817,-13.7509 h -0.054"
         style="fill:#f47137;fill-opacity:1;fill-rule:nonzero;stroke:none;stroke-width:5.13863182"
         id="path688"
         inkscape:connector-curvature="0" /><path
         d="m 4471.4387,1233.8437 c -0.3801,0.2869 -0.7059,0.569 -1.0318,0.8752 44.6392,62.4333 11.024,188.0196 -14.1194,282.2093 -1.9549,8.6989 -3.91,17.1109 -5.8107,25.1289 0.2173,0.1508 0.3258,0.2481 0.5431,0.3987 2.0636,-8.4703 4.1272,-17.3247 6.1908,-26.5924 25.0892,-94.0925 58.65,-219.5475 14.228,-282.0197"
         style="fill:#cd691c;fill-opacity:1;fill-rule:nonzero;stroke:none;stroke-width:5.13863182"
         id="path690"
         inkscape:connector-curvature="0" /><path
         d="m 4450.4768,1542.0571 c -13.9022,57.5321 -27.6415,96.334 -45.6166,118.2149 18.301,-21.4967 32.1489,-60.1529 46.1597,-117.8162 -0.2173,-0.1506 -0.3258,-0.2479 -0.5431,-0.3987"
         style="fill:#f47137;fill-opacity:1;fill-rule:nonzero;stroke:none;stroke-width:5.13863182"
         id="path692"
         inkscape:connector-curvature="0" /><path
         d="m 4401.1131,1196.1601 c -0.3257,0.3793 -0.543,0.7244 -0.8689,1.0648 33.398,3.8948 55.8261,17.3977 70.1627,37.494 0.3259,-0.3062 0.6517,-0.5883 1.0318,-0.8752 -14.3909,-20.1887 -36.8734,-33.8082 -70.3256,-37.6836"
         style="fill:#581517;fill-opacity:1;fill-rule:nonzero;stroke:none;stroke-width:5.13863182"
         id="path694"
         inkscape:connector-curvature="0" /><path
         d="m 4040.7963,1387.9237 c -8.3088,6.9143 -15.1512,13.6147 -20.6904,20.0768 5.5935,-6.3648 12.4359,-12.9728 20.7447,-19.8337 l -0.054,-0.2431"
         style="fill:#f47137;fill-opacity:1;fill-rule:nonzero;stroke:none;stroke-width:5.13863182"
         id="path696"
         inkscape:connector-curvature="0" /><path
         d="m 4379.6081,1196.1018 c -13.0332,0 -27.5328,1.2739 -43.4986,3.8412 -107.4706,14.2031 -211.2483,88.9286 -276.9036,159.5453 v 0 c -4.2902,4.6145 -8.4175,9.1754 -12.3817,13.7509 -2.118,2.4313 -4.1272,4.8236 -6.1365,7.2547 l 1.0317,6.6129 c -0.2714,0.282 -0.5973,0.5301 -0.9231,0.8169 l 0.054,0.2431 c -8.3088,6.8609 -15.1512,13.4689 -20.7447,19.8337 -77.5483,90.6937 106.2215,136.0503 193.4361,194.1706 69.1308,51.0553 115.5077,78.523 149.2858,78.523 16.6717,0 30.2481,-6.6663 42.0324,-20.4221 17.9751,-21.8809 31.7144,-60.6828 45.6166,-118.2149 v 0 c 1.9007,-8.018 3.8557,-16.43 5.8107,-25.1289 25.1434,-94.1897 58.7586,-219.776 14.1194,-282.2093 -14.3366,-20.0963 -36.7648,-33.5992 -70.1627,-37.494 -6.4623,-0.7196 -13.3048,-1.1231 -20.6361,-1.1231"
         style="fill:#f89f57;fill-opacity:1;fill-rule:nonzero;stroke:none;stroke-width:5.13863182"
         id="path698"
         inkscape:connector-curvature="0" /><rect
         style="fill:#800000;stroke-width:8.38218212"
         id="rect728"
         width="4691.6133"
         height="2219.6882"
         x="1054.795"
         y="-2927.5808"
         transform="scale(1,-1)" /><text
         xml:space="preserve"
         style="font-style:normal;font-weight:normal;font-size:932.06152344px;line-height:1.25;font-family:sans-serif;letter-spacing:0px;word-spacing:0px;fill:#000000;fill-opacity:1;stroke:none;stroke-width:23.30153847"
         x="1714.7644"
         y="-775.02753"
         id="text726"
         transform="scale(0.84320608,-1.1859497)"><tspan
           sodipodi:role="line"
           id="tspan724"
           x="1714.7644"
           y="-775.02753"
           style="font-style:normal;font-variant:normal;font-weight:normal;font-stretch:normal;font-size:2236.94775391px;font-family:TheDeadAreComing;-inkscape-font-specification:TheDeadAreComing;fill:#ffff00;stroke-width:23.30153847">Sold</tspan></text>
</g></g></svg>